<?xml version="1.0" encoding="UTF-8" standalone="no"?>
<!-- Created with Inkscape (http://www.inkscape.org/) -->

<svg
   width="630px"
   height="880px"
   viewBox="0 0 630 880"
   version="1.1"
   id="SVGRoot"
   sodipodi:docname="Card Back.svg"
   inkscape:version="1.1.1 (3bf5ae0d25, 2021-09-20)"
   xmlns:inkscape="http://www.inkscape.org/namespaces/inkscape"
   xmlns:sodipodi="http://sodipodi.sourceforge.net/DTD/sodipodi-0.dtd"
   xmlns="http://www.w3.org/2000/svg"
   xmlns:svg="http://www.w3.org/2000/svg">
  <sodipodi:namedview
     id="namedview115"
     pagecolor="#ffffff"
     bordercolor="#666666"
     borderopacity="1.0"
     inkscape:pageshadow="2"
     inkscape:pageopacity="0.0"
     inkscape:pagecheckerboard="0"
     inkscape:document-units="px"
     showgrid="false"
     inkscape:zoom="0.69130191"
     inkscape:cx="112.10731"
     inkscape:cy="445.53616"
     inkscape:window-width="1920"
     inkscape:window-height="1011"
     inkscape:window-x="0"
     inkscape:window-y="0"
     inkscape:window-maximized="1"
     inkscape:current-layer="layer1" />
  <defs
     id="defs110" />
  <g
     inkscape:label="Layer 1"
     inkscape:groupmode="layer"
     id="layer1">
    <rect
       style="fill:#7553ff;fill-rule:evenodd;stroke:#000000;stroke-opacity:1;stroke-width:10;stroke-miterlimit:4;stroke-dasharray:none;stroke-linejoin:round;fill-opacity:1"
       id="rect165"
       width="630"
       height="880"
       x="0"
       y="0" />
    <path
       sodipodi:type="spiral"
       style="fill:#356eff;fill-rule:evenodd;stroke:#000000;stroke-width:9.78989;stroke-miterlimit:4;stroke-dasharray:none;fill-opacity:1"
       id="path1390"
       sodipodi:cx="340.84082"
       sodipodi:cy="346.73877"
       sodipodi:expansion="1"
       sodipodi:revolution="15"
       sodipodi:radius="353.94733"
       sodipodi:argument="-17.174948"
       sodipodi:t0="0"
       d="m 340.84082,346.73877 c -0.36779,3.53016 -4.94005,1.24588 -5.86736,-0.6113 -2.51297,-5.03284 2.39331,-10.15004 7.08996,-11.12343 8.40121,-1.74115 15.54193,5.64344 16.37949,13.56863 1.22916,11.63053 -8.91599,21.03366 -20.04729,21.63555 -14.83626,0.80223 -26.56434,-12.19366 -26.89162,-26.52595 -0.41184,-18.03572 15.47309,-32.11444 33.00462,-32.14768 21.23302,-0.0403 37.67565,18.75335 37.40374,39.48328 -0.32042,24.42949 -22.03412,43.2438 -45.96194,42.65981 -27.6256,-0.67425 -48.8166,-25.31524 -47.91587,-52.44061 1.02346,-30.82156 28.59659,-54.39265 58.91926,-53.17194 34.01746,1.36946 59.97107,31.87813 58.42801,65.39793 -1.71309,37.21334 -35.15981,65.55125 -71.87659,63.68407 -40.40921,-2.05495 -71.13281,-38.44159 -68.94014,-78.35525 2.39547,-43.6051 41.72348,-76.71543 84.83392,-74.1962 46.80099,2.7349 82.29891,45.00544 79.45226,91.31258 -3.07347,49.99691 -48.28745,87.88309 -97.79124,84.70833 -53.19284,-3.41136 -93.46785,-51.56953 -89.96439,-104.26991 3.74866,-56.38879 54.85165,-99.05308 110.74857,-95.22045 59.58474,4.08548 104.63872,58.1338 100.47652,117.22723 -4.42191,62.78072 -61.416,110.22469 -123.7059,105.73258 -65.9767,-4.75799 -115.81097,-64.69821 -110.98864,-130.18456 5.09378,-69.1727 67.98045,-121.39749 136.66322,-116.24471 72.36871,5.42932 126.98424,71.26272 121.50077,143.14189 -5.76463,75.56472 -74.545,132.57117 -149.62055,126.75683 -78.76075,-6.09974 -138.15828,-77.8273 -132.0129,-156.09921 6.4347,-81.95678 81.10962,-143.74554 162.57788,-137.26896 85.15282,6.7695 149.33293,84.39195 142.52503,169.05653 -7.10417,88.34887 -87.6743,154.92045 -175.5352,147.7811 C 232.17952,503.58624 163.21637,420.0683 170.68728,329.01109 178.46043,234.27011 264.9263,162.9153 359.1798,170.71786 c 97.93704,8.1075 171.68359,97.5214 163.54929,194.97119 C 514.28734,466.82215 421.92531,542.96052 321.27924,534.4944 216.95007,525.71847 138.41982,430.40824 147.21782,326.56589 156.32786,219.04064 254.58639,138.11846 361.625,147.24841 472.34632,156.69248 555.66051,257.89938 546.19854,368.13425 536.42049,482.05165 432.26516,567.75789 318.83404,557.96386 201.72055,547.85188 113.62222,440.74806 123.74837,324.12069 134.19423,203.81111 244.24659,113.32064 364.0702,123.77896 487.57586,134.55864 580.45852,247.5596 569.668,370.57945 558.55453,497.2812 442.60492,592.55607 316.38884,581.43331 186.49099,569.98609 88.823871,451.0878 100.27892,321.67549 112.05984,188.58154 233.90687,88.522141 366.5154,100.3095 502.80544,112.42411 605.25716,237.21989 593.13745,373.02465 580.6892,512.51079 452.94461,617.35485 313.94364,604.90276 171.2614,592.1209 64.024972,461.42748 76.809462,319.23029 89.924914,173.35194 223.5672,63.723128 368.96059,76.840048 518.03505,90.289061 630.05628,226.88024 616.60691,375.46984 602.82436,527.74041 463.28425,642.15407 311.49845,628.37222 156.03177,614.25615 39.22566,471.76711 53.340008,316.7851 67.789567,158.12231 213.22758,38.923728 371.40579,53.370594 533.26469,68.153626 654.85576,216.54063 640.07636,377.91504 624.95987,542.97005 473.62386,666.95363 309.05325,651.84167 140.80213,636.39175 14.426027,482.1067 29.870554,314.3399 45.653899,142.89267 202.888,14.124027 373.85099,29.901139 548.49434,46.017889 679.65553,206.20105 663.54581,380.36024 647.09567,558.1997 483.96343,691.75346 306.60805,675.31113 125.57247,658.52761 -10.373858,492.44626 6.4010997,311.8947 23.517977,127.663 192.54844,-10.675914 376.29619,6.4316854 563.72401,23.881913 704.45552,195.8615 687.01527,382.80544 669.2317,573.42937 494.30297,716.5535 304.16285,698.78058"
       transform="matrix(0.86546693,0,0,1.2055654,14.909057,14.87333)" />
  </g>
</svg>
